<?xml version="1.0" encoding="utf-8"?>
<!-- Generator: Adobe Illustrator 22.1.0, SVG Export Plug-In . SVG Version: 6.00 Build 0)  -->
<svg version="1.1" id="Layer_1" xmlns="http://www.w3.org/2000/svg" xmlns:xlink="http://www.w3.org/1999/xlink" x="0px" y="0px"
	 viewBox="0 0 595.3 212.9" style="enable-background:new 0 0 595.3 212.9;" xml:space="preserve">
<style type="text/css">
	.st0{fill:#010101;}
</style>
<g>
	<path class="st0" d="M72.4,67.8c-14.8-4.1-23.8-7-23.8-14.5c0-8.4,8.5-11.4,16.5-11.4c10.3,0,18.1,4.7,22,13.3
		c0.3,0.6,0.7,1,1.3,1.2s1.2,0.1,1.8-0.2l23.3-13c1-0.6,1.4-1.9,0.9-3C105,22.5,87,12.4,65.1,12.4c-28.9,0-49,17-49,41.3
		C16,82.2,40.9,89.3,60.9,95c12.9,3.6,24,6.8,24,14.5c0,10.5-12.2,12.1-19.5,12.1c-12.9,0-22.5-6.2-26.3-17
		c-0.2-0.6-0.7-1.1-1.3-1.3c-0.6-0.2-1.3-0.2-1.9,0.2L12,117.3c-1,0.6-1.4,1.8-0.9,2.8c8.8,19.9,28.6,31.2,54.2,31.2
		c31.2,0,52.1-16.7,52.1-41.6C117.4,80.3,92.5,73.3,72.4,67.8z"/>
	<path class="st0" d="M252.9,15.7h-29.4c-0.9,0-1.8,0.6-2.1,1.5l-30.8,87.4l-35.9-87.5c-0.3-0.8-1.1-1.4-2-1.4h-30.2
		c-0.7,0-1.4,0.4-1.8,1c-0.4,0.6-0.5,1.4-0.2,2.1l53.8,124.7l-0.8,1.6c0,0.1-0.1,0.1-0.1,0.2c-6.6,17.5-16.1,24.5-31.8,23.7
		c-0.6,0-1.2,0.2-1.6,0.6c-0.4,0.4-0.7,1-0.7,1.6V197c0,1.2,0.9,2.1,2.1,2.2c1.5,0.1,2.9,0.1,4.3,0.1c27.7,0,48.5-16.7,60.3-48.6
		l49.1-132c0.3-0.7,0.2-1.4-0.3-2C254.3,16.1,253.6,15.7,252.9,15.7z"/>
	<path class="st0" d="M339.8,12.4c-15.9,0-28.7,5.3-37.4,15.3v-9.7c0-1.2-1-2.2-2.2-2.2h-27.6c-1.2,0-2.2,1-2.2,2.2v127.9
		c0,1.2,1,2.2,2.2,2.2h27.6c1.2,0,2.2-1,2.2-2.2V77.3c0-30.1,19-34.6,30.3-34.6c16.8,0,26.4,10,26.4,27.5v75.7c0,1.2,1,2.2,2.2,2.2
		h27.6c1.2,0,2.2-1,2.2-2.2V67.3C391.1,33.9,371,12.4,339.8,12.4z"/>
	<path class="st0" d="M537.6,114l-23.8-13.6c-0.5-0.3-1.1-0.4-1.7-0.2c-0.6,0.2-1.1,0.6-1.3,1.1c-6,11.6-18,18.5-32.1,18.5
		c-21.3,0-37.4-16.3-37.4-38c0-21.6,16.1-38,37.4-38c14.3,0,26.1,6.9,31.5,18.4c0.3,0.6,0.7,1,1.3,1.2c0.6,0.2,1.2,0.1,1.8-0.2
		l23.8-13.8c1-0.6,1.4-1.9,0.9-2.9c-10.8-21.1-33.4-34.2-59-34.2c-39.8,0-69.7,29.9-69.7,69.5s30,69.5,69.7,69.5
		c25.4,0,48.2-13.2,59.5-34.4C539,115.9,538.6,114.6,537.6,114z"/>
	<path class="st0" d="M565.7,114.7c-10,0-17.9,7.9-17.9,17.9c0,9.9,8,17.9,17.9,17.9s17.9-8,17.9-17.9S575.6,114.7,565.7,114.7z"/>
</g>
</svg>
